<svg xmlns="http://www.w3.org/2000/svg" xmlns:xlink="http://www.w3.org/1999/xlink" width="512" zoomAndPan="magnify" viewBox="0 0 384 383.999986" height="512" preserveAspectRatio="xMidYMid meet" version="1.0"><path fill="#000000" d="M 323.449219 60.925781 C 325.597656 63.074219 327.691406 65.273438 329.730469 67.527344 C 331.769531 69.777344 333.753906 72.078125 335.683594 74.425781 C 337.609375 76.773438 339.476562 79.167969 341.289062 81.605469 C 343.097656 84.046875 344.847656 86.53125 346.535156 89.054688 C 348.222656 91.582031 349.847656 94.148438 351.40625 96.753906 C 352.96875 99.359375 354.464844 102 355.898438 104.679688 C 357.332031 107.359375 358.695312 110.070312 359.996094 112.816406 C 361.292969 115.5625 362.523438 118.339844 363.6875 121.148438 C 364.851562 123.953125 365.941406 126.785156 366.964844 129.648438 C 367.988281 132.507812 368.941406 135.390625 369.824219 138.296875 C 370.707031 141.207031 371.515625 144.132812 372.253906 147.078125 C 372.992188 150.027344 373.660156 152.988281 374.25 155.96875 C 374.84375 158.949219 375.363281 161.941406 375.808594 164.945312 C 376.253906 167.949219 376.625 170.964844 376.925781 173.988281 C 377.222656 177.011719 377.445312 180.039062 377.59375 183.074219 C 377.742188 186.105469 377.816406 189.144531 377.816406 192.179688 C 377.820312 195.21875 377.742188 198.253906 377.59375 201.289062 C 377.445312 204.324219 377.222656 207.351562 376.925781 210.375 C 376.628906 213.398438 376.253906 216.414062 375.808594 219.417969 C 375.363281 222.421875 374.84375 225.414062 374.253906 228.394531 C 373.660156 231.375 372.996094 234.335938 372.257812 237.285156 C 371.519531 240.230469 370.707031 243.15625 369.828125 246.0625 C 368.945312 248.972656 367.992188 251.855469 366.96875 254.714844 C 365.945312 257.574219 364.851562 260.410156 363.691406 263.214844 C 362.527344 266.023438 361.296875 268.796875 359.996094 271.542969 C 358.699219 274.292969 357.332031 277.003906 355.902344 279.683594 C 354.46875 282.363281 352.972656 285.003906 351.410156 287.609375 C 349.847656 290.214844 348.226562 292.78125 346.539062 295.308594 C 344.847656 297.832031 343.101562 300.316406 341.292969 302.757812 C 339.480469 305.195312 337.613281 307.589844 335.6875 309.9375 C 333.757812 312.289062 331.777344 314.585938 329.734375 316.835938 C 327.695312 319.089844 325.601562 321.289062 323.453125 323.4375 C 321.304688 325.585938 319.105469 327.679688 316.855469 329.71875 C 314.605469 331.757812 312.304688 333.742188 309.957031 335.667969 C 307.609375 337.597656 305.214844 339.464844 302.773438 341.273438 C 300.332031 343.085938 297.851562 344.832031 295.324219 346.519531 C 292.800781 348.210938 290.234375 349.832031 287.628906 351.394531 C 285.023438 352.957031 282.378906 354.453125 279.699219 355.886719 C 277.023438 357.320312 274.308594 358.683594 271.5625 359.984375 C 268.816406 361.28125 266.039062 362.511719 263.234375 363.675781 C 260.425781 364.835938 257.59375 365.929688 254.734375 366.953125 C 251.875 367.976562 248.988281 368.929688 246.082031 369.8125 C 243.175781 370.695312 240.25 371.503906 237.300781 372.242188 C 234.355469 372.980469 231.390625 373.644531 228.414062 374.238281 C 225.433594 374.832031 222.441406 375.351562 219.4375 375.796875 C 216.429688 376.242188 213.417969 376.613281 210.394531 376.910156 C 207.371094 377.210938 204.34375 377.433594 201.308594 377.582031 C 198.273438 377.730469 195.238281 377.804688 192.199219 377.804688 C 189.160156 377.804688 186.125 377.730469 183.09375 377.582031 C 180.058594 377.433594 177.027344 377.210938 174.003906 376.914062 C 170.984375 376.613281 167.96875 376.242188 164.964844 375.796875 C 161.957031 375.351562 158.964844 374.832031 155.988281 374.238281 C 153.007812 373.648438 150.042969 372.980469 147.097656 372.242188 C 144.152344 371.503906 141.222656 370.695312 138.316406 369.8125 C 135.410156 368.933594 132.527344 367.980469 129.664062 366.957031 C 126.804688 365.933594 123.972656 364.839844 121.164062 363.675781 C 118.359375 362.515625 115.582031 361.285156 112.835938 359.984375 C 110.089844 358.6875 107.378906 357.320312 104.699219 355.890625 C 102.019531 354.457031 99.375 352.960938 96.769531 351.398438 C 94.164062 349.835938 91.597656 348.210938 89.074219 346.523438 C 86.546875 344.835938 84.066406 343.089844 81.625 341.277344 C 79.183594 339.46875 76.789062 337.601562 74.441406 335.675781 C 72.09375 333.746094 69.792969 331.761719 67.542969 329.722656 C 65.292969 327.683594 63.09375 325.589844 60.945312 323.441406 C 58.796875 321.292969 56.703125 319.09375 54.664062 316.84375 C 52.621094 314.589844 50.636719 312.292969 48.710938 309.945312 C 46.785156 307.597656 44.914062 305.203125 43.105469 302.761719 C 41.296875 300.320312 39.546875 297.839844 37.859375 295.3125 C 36.171875 292.785156 34.546875 290.222656 32.984375 287.617188 C 31.421875 285.011719 29.925781 282.367188 28.496094 279.6875 C 27.0625 277.007812 25.695312 274.296875 24.398438 271.550781 C 23.097656 268.804688 21.867188 266.027344 20.707031 263.222656 C 19.542969 260.414062 18.449219 257.582031 17.425781 254.722656 C 16.402344 251.859375 15.449219 248.976562 14.570312 246.070312 C 13.6875 243.164062 12.875 240.238281 12.136719 237.289062 C 11.402344 234.34375 10.734375 231.378906 10.140625 228.402344 C 9.550781 225.421875 9.03125 222.429688 8.585938 219.425781 C 8.140625 216.417969 7.765625 213.40625 7.46875 210.382812 C 7.171875 207.359375 6.949219 204.328125 6.796875 201.296875 C 6.648438 198.261719 6.574219 195.226562 6.574219 192.1875 C 6.574219 189.148438 6.648438 186.113281 6.796875 183.078125 C 6.949219 180.046875 7.171875 177.015625 7.46875 173.992188 C 7.765625 170.96875 8.136719 167.957031 8.582031 164.949219 C 9.027344 161.945312 9.546875 158.953125 10.140625 155.972656 C 10.734375 152.996094 11.398438 150.03125 12.136719 147.085938 C 12.875 144.136719 13.683594 141.210938 14.566406 138.304688 C 15.449219 135.398438 16.402344 132.511719 17.425781 129.652344 C 18.449219 126.792969 19.539062 123.960938 20.703125 121.152344 C 21.867188 118.347656 23.097656 115.570312 24.394531 112.824219 C 25.695312 110.078125 27.058594 107.363281 28.492188 104.6875 C 29.921875 102.007812 31.421875 99.363281 32.980469 96.757812 C 34.542969 94.152344 36.167969 91.585938 37.855469 89.0625 C 39.542969 86.535156 41.292969 84.050781 43.101562 81.613281 C 44.910156 79.171875 46.78125 76.777344 48.707031 74.429688 C 50.632812 72.082031 52.617188 69.78125 54.65625 67.53125 C 56.699219 65.28125 58.792969 63.082031 60.941406 60.933594 C 63.089844 58.785156 65.289062 56.691406 67.539062 54.648438 C 69.789062 52.609375 72.089844 50.625 74.4375 48.699219 C 76.785156 46.773438 79.179688 44.902344 81.621094 43.09375 C 84.058594 41.285156 86.542969 39.535156 89.066406 37.847656 C 91.59375 36.160156 94.160156 34.535156 96.765625 32.972656 C 99.371094 31.410156 102.011719 29.914062 104.691406 28.480469 C 107.371094 27.050781 110.085938 25.683594 112.832031 24.386719 C 115.578125 23.085938 118.351562 21.855469 121.160156 20.695312 C 123.964844 19.53125 126.800781 18.4375 129.660156 17.414062 C 132.519531 16.390625 135.402344 15.4375 138.308594 14.554688 C 141.21875 13.675781 144.144531 12.863281 147.089844 12.125 C 150.039062 11.386719 153 10.722656 155.980469 10.128906 C 158.960938 9.539062 161.953125 9.019531 164.957031 8.570312 C 167.960938 8.125 170.976562 7.753906 174 7.457031 C 177.023438 7.160156 180.050781 6.933594 183.085938 6.785156 C 186.121094 6.636719 189.15625 6.5625 192.195312 6.5625 C 195.230469 6.5625 198.265625 6.636719 201.300781 6.785156 C 204.335938 6.933594 207.363281 7.160156 210.386719 7.457031 C 213.410156 7.753906 216.425781 8.125 219.429688 8.570312 C 222.433594 9.015625 225.425781 9.535156 228.40625 10.128906 C 231.386719 10.722656 234.347656 11.386719 237.296875 12.125 C 240.242188 12.863281 243.167969 13.671875 246.078125 14.554688 C 248.984375 15.4375 251.867188 16.390625 254.726562 17.414062 C 257.589844 18.4375 260.421875 19.527344 263.226562 20.691406 C 266.035156 21.851562 268.8125 23.085938 271.558594 24.382812 C 274.304688 25.683594 277.015625 27.046875 279.695312 28.480469 C 282.375 29.910156 285.015625 31.40625 287.621094 32.96875 C 290.226562 34.53125 292.792969 36.15625 295.320312 37.84375 C 297.847656 39.53125 300.328125 41.28125 302.769531 43.089844 C 305.207031 44.898438 307.601562 46.769531 309.953125 48.695312 C 312.300781 50.621094 314.597656 52.605469 316.851562 54.644531 C 319.101562 56.6875 321.300781 58.78125 323.449219 60.925781 Z M 323.449219 60.925781 " fill-opacity="1" fill-rule="nonzero"/><path fill="#fffffe" d="M 167.441406 210.722656 C 158.082031 201.363281 152.910156 188.75 152.910156 175.523438 C 152.910156 162.296875 158.082031 149.683594 167.441406 140.324219 L 221.703125 86.0625 C 231.0625 76.703125 243.679688 71.527344 256.902344 71.527344 C 270.128906 71.527344 282.742188 76.703125 292.101562 86.0625 C 301.460938 95.421875 306.632812 108.035156 306.632812 121.261719 C 306.632812 134.484375 301.460938 147.101562 292.101562 156.457031 L 250.066406 198.496094 L 234.785156 183.210938 L 276.820312 141.175781 C 282.117188 135.878906 285.015625 128.746094 285.015625 121.261719 C 285.015625 113.78125 282.109375 106.644531 276.820312 101.34375 C 271.519531 96.046875 264.390625 93.140625 256.902344 93.140625 C 249.425781 93.140625 242.285156 96.046875 236.988281 101.335938 L 182.722656 155.601562 C 177.425781 160.898438 174.527344 168.03125 174.527344 175.515625 C 174.527344 182.996094 177.433594 190.132812 182.730469 195.433594 L 186.042969 198.742188 L 170.75 214.039062 Z M 167.441406 210.722656 " fill-opacity="1" fill-rule="evenodd"/><path fill="#fffffe" d="M 216.957031 173.644531 C 226.316406 183.003906 231.488281 195.617188 231.488281 208.84375 C 231.488281 222.070312 226.316406 234.683594 216.957031 244.042969 L 162.691406 298.304688 C 153.335938 307.664062 140.71875 312.835938 127.496094 312.835938 C 114.269531 312.835938 101.652344 307.664062 92.296875 298.304688 C 82.9375 288.945312 77.761719 276.332031 77.761719 263.105469 C 77.761719 249.878906 82.9375 237.265625 92.296875 227.90625 L 134.332031 185.871094 L 149.613281 201.15625 L 107.578125 243.191406 C 102.28125 248.488281 99.378906 255.621094 99.378906 263.105469 C 99.378906 270.585938 102.289062 277.722656 107.578125 283.023438 C 112.875 288.320312 120.007812 291.226562 127.496094 291.226562 C 134.972656 291.226562 142.113281 288.320312 147.410156 283.03125 L 201.671875 228.765625 C 206.972656 223.46875 209.871094 216.335938 209.871094 208.851562 C 209.871094 201.371094 206.964844 194.234375 201.664062 188.933594 L 198.355469 185.625 L 213.636719 170.34375 Z M 216.957031 173.644531 " fill-opacity="1" fill-rule="evenodd"/></svg>